<svg version="1.1" viewBox="0.0 0.0 960.0 540.0" fill="none" stroke="none" stroke-linecap="square" stroke-miterlimit="10" xmlns:xlink="http://www.w3.org/1999/xlink" xmlns="http://www.w3.org/2000/svg"><clipPath id="p.0"><path d="m0 0l960.0 0l0 540.0l-960.0 0l0 -540.0z" clip-rule="nonzero"/></clipPath><g clip-path="url(#p.0)"><path fill="#4e4e4e" d="m0 0l960.0 0l0 540.0l-960.0 0z" fill-rule="evenodd"/><path fill="#000000" fill-opacity="0.0" d="m32.72441 98.608925l894.55115 0l0 323.49606l-894.55115 0z" fill-rule="evenodd"/><path fill="#3ecf31" d="m236.83986 151.60196q13.609375 0 23.20311 7.6875q9.609375 7.6875 11.25 21.078125l-17.01561 0q-1.140625 -6.28125 -6.234375 -10.140625q-5.078125 -3.859375 -11.265625 -3.859375q-10.28125 0 -16.0 7.53125q-5.703125 7.515625 -5.703125 19.921875q0 11.875 5.65625 19.3125q5.65625 7.4375 16.109375 7.4375q7.59375 0 12.296875 -4.671875q4.703125 -4.6875 5.796875 -13.21875l17.062485 0q-1.53125 15.265625 -11.078125 24.0q-9.531235 8.71875 -24.07811 8.71875q-11.546875 0 -20.546875 -5.28125q-8.984375 -5.28125 -13.890625 -14.90625q-4.890625 -9.625 -4.890625 -21.390625q0 -18.421875 10.765625 -30.3125q10.78125 -11.90625 28.5625 -11.90625zm83.01561 0q17.828125 0 28.5625 11.953125q10.75 11.953125 10.75 30.265625q0 17.890625 -10.796875 29.734375q-10.796875 11.84375 -28.515625 11.84375q-11.546875 0 -20.546875 -5.3125q-8.984375 -5.3125 -13.890625 -14.90625q-4.890625 -9.59375 -4.890625 -21.359375q0 -18.484375 10.796875 -30.34375q10.8125 -11.875 28.53125 -11.875zm-21.765625 42.21875q0 11.8125 5.65625 19.28125q5.65625 7.46875 16.109375 7.46875q10.328125 0 16.015625 -7.359375q5.6875 -7.359375 5.6875 -19.390625q0 -12.625 -5.765625 -20.03125q-5.765625 -7.421875 -16.046875 -7.421875q-10.234375 0 -15.953125 7.5q-5.703125 7.484375 -5.703125 19.953125zm97.77344 -40.296875l18.703125 54.953125l0.21875 0l17.671875 -54.734375l0.109375 -0.21875l24.65625 0l0 79.953125l-16.453125 0l0 -56.65625l-0.21875 0l-19.578125 56.65625l-13.5625 0l-19.640625 -56.109375l-0.21875 0l0 56.109375l-16.453125 0l0 -79.953125l24.765625 0zm113.484375 0q12.515625 0 19.8125 7.03125q7.3125 7.015625 7.3125 18.609375q0 11.546875 -7.3125 18.609375q-7.296875 7.046875 -19.8125 7.046875l-19.03125 0l0 28.65625l-17.609375 0l0 -79.953125l36.640625 0zm-4.875 37.625q7.546875 0 11.234375 -2.84375q3.703125 -2.84375 3.703125 -9.140625q0 -6.125 -3.5625 -9.046875q-3.546875 -2.921875 -11.3125 -2.921875l-14.21875 0l0 23.953125l14.15625 0zm75.41412 -37.625l29.921875 79.890625l-18.265625 0l-6.015625 -17.765625l-29.921875 0l-6.28125 17.828125l-17.781311 0l30.359436 -79.953125l17.984375 0zm-9.296875 19.6875l-10.390625 29.359375l20.734375 0l-10.0625 -29.359375l-0.28125 0zm63.664062 -19.6875l33.359375 53.640625l0.21875 0l0 -53.640625l16.453125 0l0 79.953125l-17.546875 0l-33.3125 -53.546875l-0.21875 0l0 53.546875l-16.453125 0l0 -79.953125l17.5 0zm76.609375 0l18.703125 31.546875l18.59375 -31.546875l19.578125 0l-29.640625 49.265625l0 30.6875l-17.609375 0l0 -31.125l-29.421875 -48.828125l19.796875 0z" fill-rule="nonzero"/><path fill="#3ecf31" d="m344.875 287.92383l0 65.1875l38.984375 0l0 14.765625l-56.59375 0l0 -79.953125l17.609375 0zm79.953125 -1.921875q17.828125 0 28.5625 11.953125q10.75 11.953125 10.75 30.265625q0 17.890625 -10.796875 29.734375q-10.796875 11.84375 -28.515625 11.84375q-11.546875 0 -20.546875 -5.3125q-8.984375 -5.3125 -13.890625 -14.90625q-4.890625 -9.59375 -4.890625 -21.359375q0 -18.484375 10.796875 -30.34375q10.8125 -11.875 28.53125 -11.875zm-21.765625 42.21875q0 11.8125 5.65625 19.28125q5.65625 7.46875 16.109375 7.46875q10.328125 0 16.015625 -7.359375q5.6875 -7.359375 5.6875 -19.390625q0 -12.625 -5.765625 -20.03125q-5.765625 -7.421875 -16.046875 -7.421875q-10.234375 0 -15.953125 7.5q-5.703125 7.484375 -5.703125 19.953125zm108.82031 -42.21875q13.015625 0 22.640625 7.53125q9.625 7.515625 11.109436 20.6875l-16.796936 0q-1.6875 -6.71875 -6.125 -10.078125q-4.421875 -3.375 -10.765625 -3.375q-10.453125 0 -16.109375 7.578125q-5.65625 7.578125 -5.65625 19.875q0 11.65625 5.59375 19.203125q5.609375 7.546875 16.171875 7.546875q8.421875 0 13.3125 -4.296875q4.890625 -4.296875 5.71875 -12.9375l-17.71875 0l0 -13.125l33.62506 0l0 43.265625l-11.203186 0l-1.8125 -9.03125q-4.3125 5.421875 -9.78125 8.1875q-5.46875 2.765625 -12.203125 2.765625q-11.421875 0 -20.453125 -5.28125q-9.015625 -5.28125 -13.921875 -14.90625q-4.890625 -9.625 -4.890625 -21.390625q0 -18.484375 10.765625 -30.34375q10.78125 -11.875 28.5 -11.875zm85.046936 0q17.828125 0 28.5625 11.953125q10.75 11.953125 10.75 30.265625q0 17.890625 -10.796875 29.734375q-10.796875 11.84375 -28.515625 11.84375q-11.546875 0 -20.546875 -5.3125q-8.984375 -5.3125 -13.890625 -14.90625q-4.890625 -9.59375 -4.890625 -21.359375q0 -18.484375 10.796875 -30.34375q10.8125 -11.875 28.53125 -11.875zm-21.765625 42.21875q0 11.8125 5.65625 19.28125q5.65625 7.46875 16.109375 7.46875q10.328125 0 16.015625 -7.359375q5.6875 -7.359375 5.6875 -19.390625q0 -12.625 -5.765625 -20.03125q-5.765625 -7.421875 -16.046875 -7.421875q-10.234375 0 -15.953125 7.5q-5.703125 7.484375 -5.703125 19.953125z" fill-rule="nonzero"/></g></svg>